<mxfile host="app.diagrams.net" modified="2021-11-23T10:18:26.079Z" agent="5.0 (Macintosh; Intel Mac OS X 10_15_7) AppleWebKit/537.36 (KHTML, like Gecko) Chrome/96.0.4664.55 Safari/537.36" etag="SKAvuaXpeHunRh_evT02" version="15.8.4" type="github">
  <diagram id="hI7e4cZUsG9M7KaGvV4N" name="Page-1">
    <mxGraphModel dx="1370" dy="801" grid="1" gridSize="10" guides="1" tooltips="1" connect="1" arrows="1" fold="1" page="1" pageScale="1" pageWidth="827" pageHeight="1169" math="0" shadow="0">
      <root>
        <mxCell id="0" />
        <mxCell id="1" parent="0" />
        <mxCell id="IuZBLI0x4jvca_-rGV12-7" style="rounded=0;orthogonalLoop=1;jettySize=auto;html=1;exitX=0;exitY=0;exitDx=0;exitDy=0;entryX=1;entryY=0.5;entryDx=0;entryDy=0;" edge="1" parent="1" source="IuZBLI0x4jvca_-rGV12-1" target="IuZBLI0x4jvca_-rGV12-2">
          <mxGeometry relative="1" as="geometry">
            <mxPoint x="380" y="285" as="sourcePoint" />
            <mxPoint x="470" y="155" as="targetPoint" />
          </mxGeometry>
        </mxCell>
        <mxCell id="IuZBLI0x4jvca_-rGV12-18" style="edgeStyle=none;rounded=0;orthogonalLoop=1;jettySize=auto;html=1;exitX=0;exitY=0.75;exitDx=0;exitDy=0;entryX=1;entryY=0.25;entryDx=0;entryDy=0;" edge="1" parent="1" source="IuZBLI0x4jvca_-rGV12-1" target="IuZBLI0x4jvca_-rGV12-5">
          <mxGeometry relative="1" as="geometry" />
        </mxCell>
        <mxCell id="IuZBLI0x4jvca_-rGV12-22" style="edgeStyle=none;rounded=0;orthogonalLoop=1;jettySize=auto;html=1;exitX=0.75;exitY=1;exitDx=0;exitDy=0;entryX=0.75;entryY=0;entryDx=0;entryDy=0;startArrow=none;startFill=0;endArrow=classic;endFill=1;" edge="1" parent="1">
          <mxGeometry relative="1" as="geometry">
            <mxPoint x="356" y="340" as="sourcePoint" />
            <mxPoint x="356" y="440" as="targetPoint" />
          </mxGeometry>
        </mxCell>
        <mxCell id="IuZBLI0x4jvca_-rGV12-23" style="edgeStyle=none;rounded=0;orthogonalLoop=1;jettySize=auto;html=1;exitX=1;exitY=0;exitDx=0;exitDy=0;entryX=0;entryY=0.5;entryDx=0;entryDy=0;startArrow=none;startFill=0;endArrow=classic;endFill=1;" edge="1" parent="1" source="IuZBLI0x4jvca_-rGV12-1" target="IuZBLI0x4jvca_-rGV12-3">
          <mxGeometry relative="1" as="geometry" />
        </mxCell>
        <mxCell id="IuZBLI0x4jvca_-rGV12-26" style="edgeStyle=none;rounded=0;orthogonalLoop=1;jettySize=auto;html=1;exitX=1;exitY=0.75;exitDx=0;exitDy=0;entryX=0;entryY=0.25;entryDx=0;entryDy=0;startArrow=none;startFill=0;endArrow=classic;endFill=1;" edge="1" parent="1" source="IuZBLI0x4jvca_-rGV12-1" target="IuZBLI0x4jvca_-rGV12-4">
          <mxGeometry relative="1" as="geometry" />
        </mxCell>
        <mxCell id="IuZBLI0x4jvca_-rGV12-29" style="edgeStyle=orthogonalEdgeStyle;rounded=1;orthogonalLoop=1;jettySize=auto;html=1;exitX=0.25;exitY=0;exitDx=0;exitDy=0;entryX=0.25;entryY=1;entryDx=0;entryDy=0;startArrow=none;startFill=0;endArrow=classic;endFill=1;" edge="1" parent="1" source="IuZBLI0x4jvca_-rGV12-1" target="IuZBLI0x4jvca_-rGV12-19">
          <mxGeometry relative="1" as="geometry">
            <Array as="points">
              <mxPoint x="335" y="160" />
              <mxPoint x="100" y="160" />
              <mxPoint x="100" y="680" />
              <mxPoint x="335" y="680" />
            </Array>
          </mxGeometry>
        </mxCell>
        <mxCell id="IuZBLI0x4jvca_-rGV12-1" value="Start&lt;br&gt;State" style="rounded=0;whiteSpace=wrap;html=1;" vertex="1" parent="1">
          <mxGeometry x="320" y="280" width="60" height="60" as="geometry" />
        </mxCell>
        <mxCell id="IuZBLI0x4jvca_-rGV12-8" style="edgeStyle=none;rounded=0;orthogonalLoop=1;jettySize=auto;html=1;exitX=1;exitY=0.75;exitDx=0;exitDy=0;entryX=0;entryY=0.25;entryDx=0;entryDy=0;" edge="1" parent="1" source="IuZBLI0x4jvca_-rGV12-2" target="IuZBLI0x4jvca_-rGV12-1">
          <mxGeometry relative="1" as="geometry">
            <mxPoint x="470" y="167" as="sourcePoint" />
            <mxPoint x="380" y="297" as="targetPoint" />
          </mxGeometry>
        </mxCell>
        <mxCell id="IuZBLI0x4jvca_-rGV12-2" value="GoUp&lt;br&gt;State" style="rounded=0;whiteSpace=wrap;html=1;" vertex="1" parent="1">
          <mxGeometry x="160" y="200" width="60" height="60" as="geometry" />
        </mxCell>
        <mxCell id="IuZBLI0x4jvca_-rGV12-24" style="edgeStyle=none;rounded=0;orthogonalLoop=1;jettySize=auto;html=1;exitX=0;exitY=0.75;exitDx=0;exitDy=0;entryX=1;entryY=0.25;entryDx=0;entryDy=0;startArrow=none;startFill=0;endArrow=classic;endFill=1;" edge="1" parent="1" source="IuZBLI0x4jvca_-rGV12-3" target="IuZBLI0x4jvca_-rGV12-1">
          <mxGeometry relative="1" as="geometry" />
        </mxCell>
        <mxCell id="IuZBLI0x4jvca_-rGV12-3" value="GoDown&lt;br&gt;State" style="rounded=0;whiteSpace=wrap;html=1;" vertex="1" parent="1">
          <mxGeometry x="470" y="200" width="60" height="60" as="geometry" />
        </mxCell>
        <mxCell id="IuZBLI0x4jvca_-rGV12-25" style="edgeStyle=none;rounded=0;orthogonalLoop=1;jettySize=auto;html=1;exitX=0;exitY=0;exitDx=0;exitDy=0;entryX=1;entryY=0.5;entryDx=0;entryDy=0;startArrow=none;startFill=0;endArrow=classic;endFill=1;" edge="1" parent="1" source="IuZBLI0x4jvca_-rGV12-4" target="IuZBLI0x4jvca_-rGV12-1">
          <mxGeometry relative="1" as="geometry" />
        </mxCell>
        <mxCell id="IuZBLI0x4jvca_-rGV12-4" value="GoLeft&lt;br&gt;State" style="rounded=0;whiteSpace=wrap;html=1;" vertex="1" parent="1">
          <mxGeometry x="470" y="390" width="60" height="60" as="geometry" />
        </mxCell>
        <mxCell id="IuZBLI0x4jvca_-rGV12-17" style="edgeStyle=none;rounded=0;orthogonalLoop=1;jettySize=auto;html=1;exitX=1;exitY=0.5;exitDx=0;exitDy=0;entryX=0;entryY=1;entryDx=0;entryDy=0;" edge="1" parent="1" source="IuZBLI0x4jvca_-rGV12-5" target="IuZBLI0x4jvca_-rGV12-1">
          <mxGeometry relative="1" as="geometry" />
        </mxCell>
        <mxCell id="IuZBLI0x4jvca_-rGV12-5" value="GoRight&lt;br&gt;State" style="rounded=0;whiteSpace=wrap;html=1;" vertex="1" parent="1">
          <mxGeometry x="160" y="390" width="60" height="60" as="geometry" />
        </mxCell>
        <mxCell id="IuZBLI0x4jvca_-rGV12-20" style="edgeStyle=none;rounded=0;orthogonalLoop=1;jettySize=auto;html=1;exitX=1;exitY=0.5;exitDx=0;exitDy=0;startArrow=classic;startFill=1;endArrow=oval;endFill=1;" edge="1" parent="1" source="IuZBLI0x4jvca_-rGV12-16">
          <mxGeometry relative="1" as="geometry">
            <mxPoint x="430" y="470" as="targetPoint" />
          </mxGeometry>
        </mxCell>
        <mxCell id="IuZBLI0x4jvca_-rGV12-21" style="edgeStyle=none;rounded=0;orthogonalLoop=1;jettySize=auto;html=1;exitX=0.25;exitY=0;exitDx=0;exitDy=0;entryX=0.25;entryY=1;entryDx=0;entryDy=0;startArrow=none;startFill=0;endArrow=classic;endFill=1;" edge="1" parent="1">
          <mxGeometry relative="1" as="geometry">
            <mxPoint x="342" y="440" as="sourcePoint" />
            <mxPoint x="342" y="340" as="targetPoint" />
          </mxGeometry>
        </mxCell>
        <mxCell id="IuZBLI0x4jvca_-rGV12-32" style="edgeStyle=orthogonalEdgeStyle;rounded=1;orthogonalLoop=1;jettySize=auto;html=1;exitX=0.25;exitY=1;exitDx=0;exitDy=0;entryX=0.25;entryY=0;entryDx=0;entryDy=0;startArrow=none;startFill=0;endArrow=classic;endFill=1;" edge="1" parent="1">
          <mxGeometry relative="1" as="geometry">
            <mxPoint x="342" y="500" as="sourcePoint" />
            <mxPoint x="342" y="570" as="targetPoint" />
          </mxGeometry>
        </mxCell>
        <mxCell id="IuZBLI0x4jvca_-rGV12-16" value="Init State" style="rounded=0;whiteSpace=wrap;html=1;" vertex="1" parent="1">
          <mxGeometry x="320" y="440" width="60" height="60" as="geometry" />
        </mxCell>
        <mxCell id="IuZBLI0x4jvca_-rGV12-30" style="edgeStyle=orthogonalEdgeStyle;rounded=1;orthogonalLoop=1;jettySize=auto;html=1;exitX=0.75;exitY=1;exitDx=0;exitDy=0;entryX=0.75;entryY=0;entryDx=0;entryDy=0;startArrow=none;startFill=0;endArrow=classic;endFill=1;" edge="1" parent="1" source="IuZBLI0x4jvca_-rGV12-19" target="IuZBLI0x4jvca_-rGV12-1">
          <mxGeometry relative="1" as="geometry">
            <Array as="points">
              <mxPoint x="365" y="680" />
              <mxPoint x="600" y="680" />
              <mxPoint x="600" y="160" />
              <mxPoint x="365" y="160" />
            </Array>
          </mxGeometry>
        </mxCell>
        <mxCell id="IuZBLI0x4jvca_-rGV12-33" style="edgeStyle=orthogonalEdgeStyle;rounded=1;orthogonalLoop=1;jettySize=auto;html=1;exitX=0.75;exitY=0;exitDx=0;exitDy=0;entryX=0.75;entryY=1;entryDx=0;entryDy=0;startArrow=none;startFill=0;endArrow=classic;endFill=1;" edge="1" parent="1">
          <mxGeometry relative="1" as="geometry">
            <mxPoint x="355" y="570" as="sourcePoint" />
            <mxPoint x="355" y="500" as="targetPoint" />
          </mxGeometry>
        </mxCell>
        <mxCell id="IuZBLI0x4jvca_-rGV12-19" value="End State" style="rounded=0;whiteSpace=wrap;html=1;" vertex="1" parent="1">
          <mxGeometry x="320" y="570" width="60" height="60" as="geometry" />
        </mxCell>
      </root>
    </mxGraphModel>
  </diagram>
</mxfile>
